<svg width="32" height="32" viewBox="0 0 32 32" fill="none" xmlns="http://www.w3.org/2000/svg">
<path d="M9.45455 0C4.24 0 0 4.24 0 9.45455V22.5455C0 27.76 4.24 32 9.45455 32H22.5455C27.76 32 32 27.76 32 22.5455V9.45455C32 4.24 27.76 0 22.5455 0H9.45455ZM24.7273 5.81818C25.5273 5.81818 26.1818 6.47273 26.1818 7.27273C26.1818 8.07273 25.5273 8.72727 24.7273 8.72727C23.9273 8.72727 23.2727 8.07273 23.2727 7.27273C23.2727 6.47273 23.9273 5.81818 24.7273 5.81818ZM16 8C20.4145 8 24 11.5855 24 16C24 20.4145 20.4145 24 16 24C11.5855 24 8 20.4145 8 16C8 11.5855 11.5855 8 16 8ZM16 9.45455C12.3927 9.45455 9.45455 12.3927 9.45455 16C9.45455 19.6073 12.3927 22.5455 16 22.5455C19.6073 22.5455 22.5455 19.6073 22.5455 16C22.5455 12.3927 19.6073 9.45455 16 9.45455Z" fill="white"/>
</svg>
