<svg width="284" height="48" viewBox="0 0 284 48" fill="none" xmlns="http://www.w3.org/2000/svg">
<path d="M0 6.85714C0 3.07005 3.07005 0 6.85714 0H41.1429C44.93 0 48 3.07005 48 6.85714V41.1429C48 44.93 44.93 48 41.1429 48H6.85714C3.07005 48 0 44.93 0 41.1429V6.85714Z" fill="black"/>
<path d="M17.8423 20.0046C17.8057 20.544 17.7783 21.0651 17.76 21.568C17.7509 22.0709 17.7463 22.4549 17.7463 22.72C17.7463 22.912 17.7509 23.0949 17.76 23.2686C17.7691 23.4423 17.7783 23.5886 17.7874 23.7074H17.472C17.2617 22.848 17.0057 22.1714 16.704 21.6777C16.4114 21.184 16.096 20.8366 15.7577 20.6354C15.4286 20.4251 15.0994 20.32 14.7703 20.32H14.7566V28.1646C14.7566 28.5394 14.7931 28.8183 14.8663 29.0011C14.9486 29.184 15.0994 29.3029 15.3189 29.3577C15.5383 29.4126 15.8583 29.44 16.2789 29.44V29.7143C15.9589 29.7051 15.5246 29.696 14.976 29.6869C14.4366 29.6777 13.8697 29.6731 13.2754 29.6731C12.7086 29.6731 12.1737 29.6777 11.6709 29.6869C11.168 29.696 10.7611 29.7051 10.4503 29.7143V29.44C10.8709 29.44 11.1909 29.4126 11.4103 29.3577C11.6297 29.3029 11.776 29.184 11.8491 29.0011C11.9314 28.8183 11.9726 28.5394 11.9726 28.1646V20.32H11.9589C11.6297 20.32 11.296 20.4251 10.9577 20.6354C10.6286 20.8366 10.3177 21.184 10.0251 21.6777C9.73257 22.1623 9.47657 22.8389 9.25714 23.7074H8.94171C8.96 23.5886 8.96914 23.4423 8.96914 23.2686C8.97829 23.0949 8.98286 22.912 8.98286 22.72C8.98286 22.4549 8.97371 22.0709 8.95543 21.568C8.94629 21.0651 8.92343 20.544 8.88686 20.0046C9.32571 20.0137 9.81029 20.0229 10.3406 20.032C10.8709 20.0411 11.4011 20.0457 11.9314 20.0457C12.4617 20.0457 12.9417 20.0457 13.3714 20.0457C13.8011 20.0457 14.2811 20.0457 14.8114 20.0457C15.3417 20.0457 15.872 20.0411 16.4023 20.032C16.9326 20.0229 17.4126 20.0137 17.8423 20.0046Z" fill="white"/>
<path d="M23.9756 19.8126C24.6156 19.8126 25.1413 19.8994 25.5527 20.0731C25.9641 20.2469 26.3253 20.4571 26.6361 20.704C26.7367 20.7863 26.8281 20.8274 26.9104 20.8274C27.0841 20.8274 27.1984 20.5531 27.2533 20.0046H27.5687C27.5504 20.3703 27.5367 20.8183 27.5276 21.3486C27.5184 21.8697 27.5139 22.5646 27.5139 23.4331H27.1984C27.1344 22.7749 27.0201 22.2263 26.8556 21.7874C26.7001 21.3394 26.3939 20.96 25.9367 20.6491C25.7447 20.5211 25.5207 20.4206 25.2647 20.3474C25.0087 20.2743 24.7619 20.2377 24.5241 20.2377C23.9939 20.2377 23.555 20.384 23.2076 20.6766C22.8601 20.96 22.5813 21.3349 22.371 21.8011C22.1699 22.2583 22.0236 22.7611 21.9321 23.3097C21.8499 23.8491 21.8087 24.3749 21.8087 24.8869C21.8087 26.5326 22.0099 27.7349 22.4121 28.4937C22.8144 29.2526 23.3493 29.632 24.0167 29.632C24.163 29.632 24.291 29.6183 24.4007 29.5909C24.5104 29.5634 24.6064 29.5223 24.6887 29.4674C24.7893 29.3943 24.8624 29.3029 24.9081 29.1931C24.9539 29.0834 24.9767 28.9463 24.9767 28.7817V27.4103C24.9767 26.9623 24.9401 26.6286 24.867 26.4091C24.803 26.1897 24.6704 26.0389 24.4693 25.9566C24.2681 25.8743 23.9756 25.8286 23.5916 25.8194V25.5451C23.8019 25.5543 24.0579 25.5634 24.3596 25.5726C24.6613 25.5726 24.9767 25.5771 25.3059 25.5863C25.635 25.5863 25.9367 25.5863 26.211 25.5863C26.6499 25.5863 27.0521 25.5817 27.4179 25.5726C27.7927 25.5634 28.0944 25.5543 28.323 25.5451V25.8194C28.1676 25.8286 28.0487 25.8606 27.9664 25.9154C27.8841 25.9703 27.8293 26.08 27.8019 26.2446C27.7744 26.4091 27.7607 26.6606 27.7607 26.9989V29.7143H27.4864C27.4773 29.5589 27.4407 29.3897 27.3767 29.2069C27.3127 29.024 27.2076 28.9326 27.0613 28.9326C26.9881 28.9326 26.883 28.9509 26.7459 28.9874C26.6179 29.024 26.4121 29.1109 26.1287 29.248C25.7721 29.4217 25.3927 29.5771 24.9904 29.7143C24.5973 29.8423 24.2041 29.9063 23.811 29.9063C22.6681 29.9063 21.7127 29.7097 20.9447 29.3166C20.1767 28.9234 19.6007 28.3566 19.2167 27.616C18.8419 26.8754 18.6544 25.984 18.6544 24.9417C18.6544 23.9177 18.8784 23.0217 19.3264 22.2537C19.7836 21.4857 20.4099 20.8869 21.2053 20.4571C22.0099 20.0274 22.9333 19.8126 23.9756 19.8126Z" fill="white"/>
<path d="M28.9108 20.0046C29.1759 20.0137 29.5234 20.0229 29.9531 20.032C30.3919 20.0411 30.8308 20.0457 31.2696 20.0457C31.7268 20.0457 32.1656 20.0411 32.5862 20.032C33.0068 20.0229 33.3039 20.0183 33.4776 20.0183C34.4102 20.0183 35.1782 20.1051 35.7816 20.2789C36.3942 20.4526 36.8514 20.7177 37.1531 21.0743C37.4548 21.4217 37.6056 21.8651 37.6056 22.4046C37.6056 22.7429 37.5371 23.072 37.3999 23.392C37.2628 23.712 37.0296 24.0046 36.7005 24.2697C36.3714 24.5257 35.9188 24.7314 35.3428 24.8869C34.7759 25.0331 34.0536 25.1063 33.1759 25.1063H31.8594V24.832H33.0388C33.5051 24.832 33.8571 24.7314 34.0948 24.5303C34.3416 24.32 34.5062 24.0457 34.5885 23.7074C34.6799 23.36 34.7256 22.976 34.7256 22.5554C34.7256 21.8331 34.6251 21.2754 34.4239 20.8823C34.2319 20.48 33.8936 20.2789 33.4091 20.2789C33.0982 20.2789 32.8971 20.3566 32.8056 20.512C32.7142 20.6674 32.6685 20.9829 32.6685 21.4583V28.2606C32.6685 28.5897 32.6914 28.8366 32.7371 29.0011C32.7919 29.1657 32.8879 29.2754 33.0251 29.3303C33.1622 29.3851 33.3679 29.4217 33.6422 29.44V29.7143C33.3771 29.696 33.0342 29.6869 32.6136 29.6869C32.2022 29.6777 31.7816 29.6731 31.3519 29.6731C30.8582 29.6731 30.3919 29.6777 29.9531 29.6869C29.5234 29.6869 29.1759 29.696 28.9108 29.7143V29.44C29.1942 29.4217 29.4045 29.3851 29.5416 29.3303C29.6788 29.2754 29.7702 29.1657 29.8159 29.0011C29.8616 28.8366 29.8845 28.5897 29.8845 28.2606V21.4583C29.8845 21.12 29.8616 20.8731 29.8159 20.7177C29.7702 20.5531 29.6742 20.4434 29.5279 20.3886C29.3908 20.3246 29.1851 20.288 28.9108 20.2789V20.0046ZM31.7771 24.8731C32.1062 24.8823 32.4171 24.9006 32.7096 24.928C33.0022 24.9554 33.2719 24.9829 33.5188 25.0103C33.7656 25.0286 33.9759 25.0423 34.1496 25.0514C35.1279 25.0971 35.8594 25.2663 36.3439 25.5589C36.8376 25.8514 37.1394 26.2811 37.2491 26.848L37.5371 28.2743C37.6102 28.6126 37.6925 28.8457 37.7839 28.9737C37.8754 29.1017 37.9988 29.1657 38.1542 29.1657C38.2456 29.1657 38.3234 29.152 38.3874 29.1246C38.4514 29.0971 38.5154 29.0514 38.5794 28.9874L38.7576 29.1657C38.4742 29.4491 38.1634 29.6411 37.8251 29.7417C37.4959 29.8514 37.1211 29.9063 36.7005 29.9063C36.1062 29.9063 35.6262 29.8011 35.2605 29.5909C34.8948 29.3714 34.6708 28.9829 34.5885 28.4251L34.3828 27.0537C34.3279 26.6789 34.2594 26.3451 34.1771 26.0526C34.0948 25.76 33.9851 25.5314 33.8479 25.3669C33.7108 25.1931 33.5234 25.1063 33.2856 25.1063H31.8045L31.7771 24.8731Z" fill="white"/>
<path d="M62.472 18.672C62.4293 19.0773 62.3973 19.472 62.376 19.856C62.3653 20.2293 62.36 20.5173 62.36 20.72C62.36 20.976 62.3653 21.216 62.376 21.44C62.3867 21.664 62.3973 21.8613 62.408 22.032H62.04C61.9653 21.2853 61.864 20.6987 61.736 20.272C61.608 19.8347 61.384 19.52 61.064 19.328C60.744 19.136 60.248 19.04 59.576 19.04H58.712V28.144C58.712 28.5707 58.7493 28.8907 58.824 29.104C58.9093 29.3173 59.0693 29.4613 59.304 29.536C59.5387 29.6107 59.88 29.6587 60.328 29.68V30C60.0507 29.9787 59.6987 29.968 59.272 29.968C58.8453 29.9573 58.4133 29.952 57.976 29.952C57.496 29.952 57.0427 29.9573 56.616 29.968C56.2 29.968 55.864 29.9787 55.608 30V29.68C56.056 29.6587 56.3973 29.6107 56.632 29.536C56.8667 29.4613 57.0213 29.3173 57.096 29.104C57.1813 28.8907 57.224 28.5707 57.224 28.144V19.04H56.36C55.6987 19.04 55.2027 19.136 54.872 19.328C54.552 19.52 54.328 19.8347 54.2 20.272C54.072 20.6987 53.9707 21.2853 53.896 22.032H53.528C53.5493 21.8613 53.56 21.664 53.56 21.44C53.5707 21.216 53.576 20.976 53.576 20.72C53.576 20.5173 53.5653 20.2293 53.544 19.856C53.5333 19.472 53.5067 19.0773 53.464 18.672C53.912 18.6827 54.3973 18.6933 54.92 18.704C55.4533 18.7147 55.9867 18.72 56.52 18.72C57.0533 18.72 57.5387 18.72 57.976 18.72C58.4133 18.72 58.8933 18.72 59.416 18.72C59.9493 18.72 60.4827 18.7147 61.016 18.704C61.5493 18.6933 62.0347 18.6827 62.472 18.672ZM65.0197 17.472V23.456C65.2971 22.7307 65.6811 22.2293 66.1718 21.952C66.6731 21.6747 67.1957 21.536 67.7397 21.536C68.1451 21.536 68.4811 21.5893 68.7478 21.696C69.0251 21.8027 69.2544 21.952 69.4358 22.144C69.6384 22.3573 69.7824 22.624 69.8678 22.944C69.9531 23.264 69.9957 23.696 69.9957 24.24V28.512C69.9957 28.96 70.0864 29.264 70.2677 29.424C70.4597 29.584 70.7744 29.664 71.2118 29.664V30C71.0304 29.9893 70.7531 29.9787 70.3798 29.968C70.0064 29.9467 69.6438 29.936 69.2917 29.936C68.9398 29.936 68.5931 29.9467 68.2517 29.968C67.9211 29.9787 67.6704 29.9893 67.4998 30V29.664C67.8837 29.664 68.1557 29.584 68.3158 29.424C68.4757 29.264 68.5557 28.96 68.5557 28.512V23.888C68.5557 23.5573 68.5291 23.2533 68.4757 22.976C68.4224 22.6987 68.2998 22.4747 68.1077 22.304C67.9264 22.1333 67.6438 22.048 67.2597 22.048C66.8224 22.048 66.4331 22.1707 66.0918 22.416C65.7611 22.6613 65.4998 23.0027 65.3077 23.44C65.1157 23.8773 65.0197 24.3787 65.0197 24.944V28.512C65.0197 28.96 65.0997 29.264 65.2597 29.424C65.4197 29.584 65.6917 29.664 66.0757 29.664V30C65.9051 29.9893 65.6491 29.9787 65.3077 29.968C64.9771 29.9467 64.6357 29.936 64.2837 29.936C63.9317 29.936 63.5691 29.9467 63.1957 29.968C62.8224 29.9787 62.5451 29.9893 62.3637 30V29.664C62.8011 29.664 63.1104 29.584 63.2917 29.424C63.4837 29.264 63.5797 28.96 63.5797 28.512V19.392C63.5797 18.912 63.4944 18.56 63.3237 18.336C63.1531 18.1013 62.8331 17.984 62.3637 17.984V17.648C62.7051 17.68 63.0357 17.696 63.3557 17.696C63.6651 17.696 63.9584 17.68 64.2357 17.648C64.5237 17.6053 64.7851 17.5467 65.0197 17.472ZM75.002 21.536C75.9407 21.536 76.6713 21.824 77.194 22.4C77.7273 22.9653 77.994 23.8507 77.994 25.056H72.346L72.33 24.752H76.458C76.4793 24.2293 76.4367 23.7493 76.33 23.312C76.2233 22.864 76.0527 22.5067 75.818 22.24C75.594 21.9733 75.3007 21.84 74.938 21.84C74.4473 21.84 74.01 22.0853 73.626 22.576C73.2527 23.0667 73.0287 23.8453 72.954 24.912L73.002 24.976C72.9807 25.136 72.9647 25.312 72.954 25.504C72.9433 25.696 72.938 25.888 72.938 26.08C72.938 26.8053 73.0553 27.4293 73.29 27.952C73.5247 28.4747 73.8287 28.8747 74.202 29.152C74.586 29.4187 74.9807 29.552 75.386 29.552C75.706 29.552 76.01 29.504 76.298 29.408C76.586 29.3013 76.8527 29.1307 77.098 28.896C77.3433 28.6613 77.5567 28.3467 77.738 27.952L78.058 28.08C77.9407 28.432 77.7487 28.7733 77.482 29.104C77.2153 29.4347 76.8793 29.7067 76.474 29.92C76.0687 30.1227 75.5993 30.224 75.066 30.224C74.298 30.224 73.6367 30.048 73.082 29.696C72.538 29.344 72.1167 28.8587 71.818 28.24C71.53 27.6107 71.386 26.8907 71.386 26.08C71.386 25.1413 71.5353 24.336 71.834 23.664C72.1327 22.9813 72.554 22.4587 73.098 22.096C73.642 21.7227 74.2767 21.536 75.002 21.536ZM87.1441 18.448C87.8375 18.448 88.3975 18.5547 88.8241 18.768C89.2508 18.9707 89.6508 19.2107 90.0241 19.488C90.1628 19.5947 90.2695 19.648 90.3441 19.648C90.5468 19.648 90.6801 19.3227 90.7441 18.672H91.1121C91.0908 19.0667 91.0748 19.5467 91.0641 20.112C91.0535 20.6773 91.0481 21.424 91.0481 22.352H90.6801C90.6055 21.904 90.5148 21.472 90.4081 21.056C90.3015 20.64 90.1255 20.2827 89.8801 19.984C89.5708 19.5893 89.1655 19.2853 88.6641 19.072C88.1628 18.848 87.6455 18.736 87.1121 18.736C86.5788 18.736 86.0935 18.8693 85.6561 19.136C85.2295 19.392 84.8615 19.7653 84.5521 20.256C84.2428 20.7467 84.0028 21.3387 83.8321 22.032C83.6721 22.7147 83.5921 23.488 83.5921 24.352C83.5921 26.272 83.9015 27.68 84.5201 28.576C85.1388 29.4613 86.0988 29.904 87.4001 29.904C87.7841 29.904 88.1148 29.8507 88.3921 29.744C88.6801 29.6267 88.9041 29.5147 89.0641 29.408C89.2668 29.2693 89.3948 29.1413 89.4481 29.024C89.5015 28.896 89.5281 28.7307 89.5281 28.528V26.992C89.5281 26.5547 89.4855 26.2293 89.4001 26.016C89.3148 25.8027 89.1548 25.6587 88.9201 25.584C88.6961 25.5093 88.3601 25.4667 87.9121 25.456V25.136C88.1041 25.1467 88.3281 25.1573 88.5841 25.168C88.8401 25.168 89.1068 25.1733 89.3841 25.184C89.6721 25.184 89.9335 25.184 90.1681 25.184C90.5201 25.184 90.8348 25.1787 91.1121 25.168C91.4001 25.1573 91.6401 25.1467 91.8321 25.136V25.456C91.5975 25.4667 91.4215 25.504 91.3041 25.568C91.1868 25.632 91.1068 25.76 91.0641 25.952C91.0321 26.144 91.0161 26.4373 91.0161 26.832V30H90.6961C90.6855 29.8187 90.6428 29.6213 90.5681 29.408C90.5041 29.1947 90.4028 29.088 90.2641 29.088C90.2001 29.088 90.1361 29.104 90.0721 29.136C90.0081 29.168 89.8961 29.2427 89.7361 29.36C89.3841 29.6267 89.0108 29.84 88.6161 30C88.2215 30.1493 87.7628 30.224 87.2401 30.224C86.1415 30.224 85.1975 30 84.4081 29.552C83.6295 29.0933 83.0321 28.4373 82.6161 27.584C82.2001 26.7307 81.9921 25.712 81.9921 24.528C81.9921 23.28 82.2161 22.2027 82.6641 21.296C83.1121 20.3893 83.7201 19.6907 84.4881 19.2C85.2668 18.6987 86.1521 18.448 87.1441 18.448ZM97.0181 21.536C97.3061 21.536 97.5568 21.5947 97.7701 21.712C97.9941 21.8293 98.1648 21.984 98.2821 22.176C98.4101 22.3573 98.4741 22.5653 98.4741 22.8C98.4741 23.0667 98.3888 23.3013 98.2181 23.504C98.0581 23.7067 97.8395 23.808 97.5621 23.808C97.3381 23.808 97.1408 23.7387 96.9701 23.6C96.7995 23.4507 96.7141 23.2427 96.7141 22.976C96.7141 22.7733 96.7675 22.6027 96.8741 22.464C96.9915 22.3147 97.1195 22.1973 97.2581 22.112C97.1835 22.0053 97.0715 21.952 96.9221 21.952C96.5915 21.952 96.2875 22.0533 96.0101 22.256C95.7328 22.448 95.4981 22.6987 95.3061 23.008C95.1141 23.3173 94.9648 23.648 94.8581 24C94.7515 24.3413 94.6981 24.6613 94.6981 24.96V28.352C94.6981 28.8747 94.8475 29.2267 95.1461 29.408C95.4555 29.5787 95.8715 29.664 96.3941 29.664V30C96.1488 29.9893 95.8021 29.9787 95.3541 29.968C94.9061 29.9467 94.4315 29.936 93.9301 29.936C93.5675 29.936 93.2048 29.9467 92.8421 29.968C92.4901 29.9787 92.2235 29.9893 92.0421 30V29.664C92.4795 29.664 92.7888 29.584 92.9701 29.424C93.1621 29.264 93.2581 28.96 93.2581 28.512V23.504C93.2581 23.024 93.1728 22.672 93.0021 22.448C92.8315 22.2133 92.5115 22.096 92.0421 22.096V21.76C92.3835 21.792 92.7141 21.808 93.0341 21.808C93.3435 21.808 93.6368 21.792 93.9141 21.76C94.2021 21.7173 94.4635 21.6587 94.6981 21.584V23.584C94.8155 23.2747 94.9808 22.9653 95.1941 22.656C95.4181 22.336 95.6848 22.0693 95.9941 21.856C96.3035 21.6427 96.6448 21.536 97.0181 21.536ZM101.943 21.536C102.881 21.536 103.612 21.824 104.135 22.4C104.668 22.9653 104.935 23.8507 104.935 25.056H99.2866L99.2706 24.752H103.399C103.42 24.2293 103.377 23.7493 103.271 23.312C103.164 22.864 102.993 22.5067 102.759 22.24C102.535 21.9733 102.241 21.84 101.879 21.84C101.388 21.84 100.951 22.0853 100.567 22.576C100.193 23.0667 99.9693 23.8453 99.8946 24.912L99.9426 24.976C99.9213 25.136 99.9053 25.312 99.8946 25.504C99.884 25.696 99.8786 25.888 99.8786 26.08C99.8786 26.8053 99.996 27.4293 100.231 27.952C100.465 28.4747 100.769 28.8747 101.143 29.152C101.527 29.4187 101.921 29.552 102.327 29.552C102.647 29.552 102.951 29.504 103.239 29.408C103.527 29.3013 103.793 29.1307 104.039 28.896C104.284 28.6613 104.497 28.3467 104.679 27.952L104.999 28.08C104.881 28.432 104.689 28.7733 104.423 29.104C104.156 29.4347 103.82 29.7067 103.415 29.92C103.009 30.1227 102.54 30.224 102.007 30.224C101.239 30.224 100.577 30.048 100.023 29.696C99.4786 29.344 99.0573 28.8587 98.7586 28.24C98.4706 27.6107 98.3266 26.8907 98.3266 26.08C98.3266 25.1413 98.476 24.336 98.7746 23.664C99.0733 22.9813 99.4946 22.4587 100.039 22.096C100.583 21.7227 101.217 21.536 101.943 21.536ZM109.236 21.536C110.175 21.536 110.906 21.824 111.428 22.4C111.962 22.9653 112.228 23.8507 112.228 25.056H106.58L106.564 24.752H110.692C110.714 24.2293 110.671 23.7493 110.564 23.312C110.458 22.864 110.287 22.5067 110.052 22.24C109.828 21.9733 109.535 21.84 109.172 21.84C108.682 21.84 108.244 22.0853 107.86 22.576C107.487 23.0667 107.263 23.8453 107.188 24.912L107.236 24.976C107.215 25.136 107.199 25.312 107.188 25.504C107.178 25.696 107.172 25.888 107.172 26.08C107.172 26.8053 107.29 27.4293 107.524 27.952C107.759 28.4747 108.063 28.8747 108.436 29.152C108.82 29.4187 109.215 29.552 109.62 29.552C109.94 29.552 110.244 29.504 110.532 29.408C110.82 29.3013 111.087 29.1307 111.332 28.896C111.578 28.6613 111.791 28.3467 111.972 27.952L112.292 28.08C112.175 28.432 111.983 28.7733 111.716 29.104C111.45 29.4347 111.114 29.7067 110.708 29.92C110.303 30.1227 109.834 30.224 109.3 30.224C108.532 30.224 107.871 30.048 107.316 29.696C106.772 29.344 106.351 28.8587 106.052 28.24C105.764 27.6107 105.62 26.8907 105.62 26.08C105.62 25.1413 105.77 24.336 106.068 23.664C106.367 22.9813 106.788 22.4587 107.332 22.096C107.876 21.7227 108.511 21.536 109.236 21.536ZM118.018 21.536C118.423 21.536 118.759 21.5893 119.026 21.696C119.303 21.8027 119.533 21.952 119.714 22.144C119.917 22.3573 120.061 22.624 120.146 22.944C120.231 23.264 120.274 23.696 120.274 24.24V28.512C120.274 28.96 120.365 29.264 120.546 29.424C120.738 29.584 121.053 29.664 121.49 29.664V30C121.309 29.9893 121.031 29.9787 120.658 29.968C120.285 29.9467 119.922 29.936 119.57 29.936C119.218 29.936 118.871 29.9467 118.53 29.968C118.199 29.9787 117.949 29.9893 117.778 30V29.664C118.162 29.664 118.434 29.584 118.594 29.424C118.754 29.264 118.834 28.96 118.834 28.512V23.888C118.834 23.5573 118.807 23.2533 118.754 22.976C118.701 22.6987 118.578 22.4747 118.386 22.304C118.205 22.1333 117.922 22.048 117.538 22.048C117.09 22.048 116.695 22.176 116.354 22.432C116.023 22.688 115.762 23.04 115.57 23.488C115.389 23.9253 115.298 24.416 115.298 24.96V28.512C115.298 28.96 115.378 29.264 115.538 29.424C115.698 29.584 115.97 29.664 116.354 29.664V30C116.183 29.9893 115.927 29.9787 115.586 29.968C115.255 29.9467 114.914 29.936 114.562 29.936C114.21 29.936 113.847 29.9467 113.474 29.968C113.101 29.9787 112.823 29.9893 112.642 30V29.664C113.079 29.664 113.389 29.584 113.57 29.424C113.762 29.264 113.858 28.96 113.858 28.512V23.504C113.858 23.024 113.773 22.672 113.602 22.448C113.431 22.2133 113.111 22.096 112.642 22.096V21.76C112.983 21.792 113.314 21.808 113.634 21.808C113.943 21.808 114.237 21.792 114.514 21.76C114.802 21.7173 115.063 21.6587 115.298 21.584V23.472C115.575 22.7467 115.959 22.2453 116.45 21.968C116.951 21.68 117.474 21.536 118.018 21.536ZM124.781 18.672C125.005 18.6827 125.299 18.6933 125.661 18.704C126.024 18.7147 126.381 18.72 126.733 18.72C127.235 18.72 127.715 18.7147 128.173 18.704C128.632 18.6933 128.957 18.688 129.149 18.688C130.013 18.688 130.728 18.8107 131.293 19.056C131.869 19.3013 132.296 19.6373 132.573 20.064C132.861 20.48 133.005 20.9493 133.005 21.472C133.005 21.792 132.941 22.1333 132.813 22.496C132.685 22.8587 132.461 23.2 132.141 23.52C131.832 23.84 131.405 24.1067 130.861 24.32C130.317 24.5227 129.629 24.624 128.797 24.624H127.261V24.304H128.637C129.395 24.304 129.971 24.1867 130.365 23.952C130.771 23.7067 131.043 23.3867 131.181 22.992C131.331 22.5867 131.405 22.1387 131.405 21.648C131.405 20.8053 131.203 20.1547 130.797 19.696C130.403 19.2267 129.72 18.992 128.749 18.992C128.259 18.992 127.939 19.0827 127.789 19.264C127.64 19.4453 127.565 19.8133 127.565 20.368V28.304C127.565 28.688 127.597 28.976 127.661 29.168C127.725 29.36 127.848 29.488 128.029 29.552C128.221 29.616 128.499 29.6587 128.861 29.68V30C128.616 29.9787 128.307 29.968 127.933 29.968C127.571 29.9573 127.203 29.952 126.829 29.952C126.413 29.952 126.024 29.9573 125.661 29.968C125.299 29.968 125.005 29.9787 124.781 30V29.68C125.144 29.6587 125.416 29.616 125.597 29.552C125.789 29.488 125.917 29.36 125.981 29.168C126.045 28.976 126.077 28.688 126.077 28.304V20.368C126.077 19.9733 126.045 19.6853 125.981 19.504C125.917 19.312 125.789 19.184 125.597 19.12C125.416 19.0453 125.144 19.0027 124.781 18.992V18.672ZM127.325 24.352C127.901 24.3733 128.355 24.4 128.685 24.432C129.016 24.4533 129.283 24.4747 129.485 24.496C129.699 24.5173 129.901 24.544 130.093 24.576C130.808 24.6933 131.32 24.912 131.629 25.232C131.949 25.5413 132.184 26.0267 132.333 26.688L132.733 28.32C132.84 28.7893 132.947 29.1307 133.053 29.344C133.171 29.5467 133.347 29.6427 133.581 29.632C133.763 29.6213 133.912 29.5627 134.029 29.456C134.157 29.3493 134.291 29.2053 134.429 29.024L134.669 29.2C134.445 29.5307 134.211 29.7867 133.965 29.968C133.731 30.1387 133.395 30.224 132.957 30.224C132.563 30.224 132.216 30.1067 131.917 29.872C131.619 29.6373 131.395 29.1787 131.245 28.496L130.893 26.896C130.797 26.4373 130.685 26.0427 130.557 25.712C130.44 25.3707 130.269 25.104 130.045 24.912C129.832 24.72 129.512 24.624 129.085 24.624H127.357L127.325 24.352ZM138.068 21.536C138.751 21.536 139.364 21.6853 139.908 21.984C140.452 22.2827 140.884 22.752 141.204 23.392C141.535 24.032 141.7 24.864 141.7 25.888C141.7 26.912 141.535 27.744 141.204 28.384C140.884 29.0133 140.452 29.4773 139.908 29.776C139.364 30.0747 138.751 30.224 138.068 30.224C137.396 30.224 136.783 30.0747 136.228 29.776C135.684 29.4773 135.247 29.0133 134.916 28.384C134.596 27.744 134.436 26.912 134.436 25.888C134.436 24.864 134.596 24.032 134.916 23.392C135.247 22.752 135.684 22.2827 136.228 21.984C136.783 21.6853 137.396 21.536 138.068 21.536ZM138.068 21.856C137.46 21.856 136.959 22.1707 136.564 22.8C136.18 23.4293 135.988 24.4587 135.988 25.888C135.988 27.3173 136.18 28.3467 136.564 28.976C136.959 29.5947 137.46 29.904 138.068 29.904C138.676 29.904 139.172 29.5947 139.556 28.976C139.951 28.3467 140.148 27.3173 140.148 25.888C140.148 24.4587 139.951 23.4293 139.556 22.8C139.172 22.1707 138.676 21.856 138.068 21.856ZM146.034 21.536C146.717 21.536 147.33 21.6853 147.874 21.984C148.418 22.2827 148.85 22.752 149.17 23.392C149.501 24.032 149.666 24.864 149.666 25.888C149.666 26.912 149.501 27.744 149.17 28.384C148.85 29.0133 148.418 29.4773 147.874 29.776C147.33 30.0747 146.717 30.224 146.034 30.224C145.362 30.224 144.749 30.0747 144.194 29.776C143.65 29.4773 143.213 29.0133 142.882 28.384C142.562 27.744 142.402 26.912 142.402 25.888C142.402 24.864 142.562 24.032 142.882 23.392C143.213 22.752 143.65 22.2827 144.194 21.984C144.749 21.6853 145.362 21.536 146.034 21.536ZM146.034 21.856C145.426 21.856 144.925 22.1707 144.53 22.8C144.146 23.4293 143.954 24.4587 143.954 25.888C143.954 27.3173 144.146 28.3467 144.53 28.976C144.925 29.5947 145.426 29.904 146.034 29.904C146.642 29.904 147.138 29.5947 147.522 28.976C147.917 28.3467 148.114 27.3173 148.114 25.888C148.114 24.4587 147.917 23.4293 147.522 22.8C147.138 22.1707 146.642 21.856 146.034 21.856ZM155.36 21.536C155.733 21.536 156.058 21.5893 156.336 21.696C156.613 21.8027 156.842 21.952 157.024 22.144C157.226 22.3573 157.365 22.6347 157.44 22.976C157.514 23.3173 157.552 23.7387 157.552 24.24V28.512C157.552 28.96 157.642 29.264 157.824 29.424C158.016 29.584 158.33 29.664 158.768 29.664V30C158.586 29.9893 158.309 29.9787 157.936 29.968C157.562 29.9467 157.2 29.936 156.848 29.936C156.496 29.936 156.149 29.9467 155.808 29.968C155.477 29.9787 155.226 29.9893 155.056 30V29.664C155.44 29.664 155.712 29.584 155.872 29.424C156.032 29.264 156.112 28.96 156.112 28.512V23.888C156.112 23.5573 156.09 23.2533 156.048 22.976C156.005 22.6987 155.898 22.4747 155.728 22.304C155.557 22.1333 155.28 22.048 154.896 22.048C154.48 22.048 154.106 22.176 153.776 22.432C153.456 22.688 153.2 23.04 153.008 23.488C152.826 23.9253 152.736 24.416 152.736 24.96V28.512C152.736 28.96 152.816 29.264 152.976 29.424C153.136 29.584 153.408 29.664 153.792 29.664V30C153.621 29.9893 153.365 29.9787 153.024 29.968C152.693 29.9467 152.352 29.936 152 29.936C151.648 29.936 151.285 29.9467 150.912 29.968C150.538 29.9787 150.261 29.9893 150.08 30V29.664C150.517 29.664 150.826 29.584 151.008 29.424C151.2 29.264 151.296 28.96 151.296 28.512V23.504C151.296 23.024 151.21 22.672 151.04 22.448C150.869 22.2133 150.549 22.096 150.08 22.096V21.76C150.421 21.792 150.752 21.808 151.072 21.808C151.381 21.808 151.674 21.792 151.952 21.76C152.24 21.7173 152.501 21.6587 152.736 21.584V23.472C153.013 22.7787 153.392 22.2827 153.872 21.984C154.352 21.6853 154.848 21.536 155.36 21.536ZM160.176 21.536C160.549 21.536 160.874 21.5893 161.152 21.696C161.429 21.8027 161.658 21.952 161.84 22.144C162.042 22.3573 162.181 22.6347 162.256 22.976C162.33 23.3173 162.368 23.7387 162.368 24.24V28.512C162.368 28.96 162.458 29.264 162.64 29.424C162.832 29.584 163.146 29.664 163.584 29.664V30C163.402 29.9893 163.125 29.9787 162.752 29.968C162.378 29.9467 162.016 29.936 161.664 29.936C161.312 29.936 160.965 29.9467 160.624 29.968C160.293 29.9787 160.042 29.9893 159.872 30V29.664C160.256 29.664 160.528 29.584 160.688 29.424C160.848 29.264 160.928 28.96 160.928 28.512V23.888C160.928 23.5573 160.906 23.2533 160.864 22.976C160.821 22.6987 160.714 22.4747 160.544 22.304C160.373 22.1333 160.096 22.048 159.712 22.048C159.296 22.048 158.922 22.176 158.592 22.432C158.272 22.688 158.016 23.0347 157.824 23.472C157.642 23.9093 157.552 24.4 157.552 24.944L157.504 23.456C157.792 22.72 158.181 22.2187 158.672 21.952C159.162 21.6747 159.664 21.536 160.176 21.536ZM172.139 18.448C172.843 18.448 173.419 18.5547 173.867 18.768C174.326 18.9707 174.731 19.2107 175.083 19.488C175.296 19.648 175.456 19.6693 175.563 19.552C175.68 19.424 175.76 19.1307 175.803 18.672H176.171C176.15 19.0667 176.134 19.5467 176.123 20.112C176.112 20.6773 176.107 21.424 176.107 22.352H175.739C175.664 21.8933 175.595 21.5307 175.531 21.264C175.467 20.9867 175.387 20.752 175.291 20.56C175.206 20.368 175.088 20.176 174.939 19.984C174.608 19.5467 174.192 19.232 173.691 19.04C173.19 18.8373 172.662 18.736 172.107 18.736C171.584 18.736 171.11 18.8693 170.683 19.136C170.267 19.392 169.904 19.7653 169.595 20.256C169.296 20.7467 169.062 21.3387 168.891 22.032C168.731 22.7253 168.651 23.504 168.651 24.368C168.651 25.264 168.742 26.0587 168.923 26.752C169.104 27.4347 169.355 28.0107 169.675 28.48C170.006 28.9493 170.39 29.3067 170.827 29.552C171.275 29.7867 171.755 29.904 172.267 29.904C172.747 29.904 173.248 29.808 173.771 29.616C174.294 29.424 174.704 29.1147 175.003 28.688C175.238 28.3787 175.398 28.0427 175.483 27.68C175.579 27.3173 175.664 26.8107 175.739 26.16H176.107C176.107 27.1307 176.112 27.9147 176.123 28.512C176.134 29.0987 176.15 29.5947 176.171 30H175.803C175.76 29.5413 175.686 29.2533 175.579 29.136C175.483 29.0187 175.318 29.0347 175.083 29.184C174.688 29.4613 174.267 29.7067 173.819 29.92C173.382 30.1227 172.816 30.224 172.123 30.224C171.11 30.224 170.219 29.9947 169.451 29.536C168.694 29.0773 168.102 28.416 167.675 27.552C167.259 26.688 167.051 25.648 167.051 24.432C167.051 23.2373 167.27 22.192 167.707 21.296C168.144 20.4 168.742 19.7013 169.499 19.2C170.267 18.6987 171.147 18.448 172.139 18.448ZM180.803 21.536C181.485 21.536 182.099 21.6853 182.643 21.984C183.187 22.2827 183.619 22.752 183.939 23.392C184.269 24.032 184.435 24.864 184.435 25.888C184.435 26.912 184.269 27.744 183.939 28.384C183.619 29.0133 183.187 29.4773 182.643 29.776C182.099 30.0747 181.485 30.224 180.803 30.224C180.131 30.224 179.517 30.0747 178.963 29.776C178.419 29.4773 177.981 29.0133 177.651 28.384C177.331 27.744 177.171 26.912 177.171 25.888C177.171 24.864 177.331 24.032 177.651 23.392C177.981 22.752 178.419 22.2827 178.963 21.984C179.517 21.6853 180.131 21.536 180.803 21.536ZM180.803 21.856C180.195 21.856 179.693 22.1707 179.299 22.8C178.915 23.4293 178.723 24.4587 178.723 25.888C178.723 27.3173 178.915 28.3467 179.299 28.976C179.693 29.5947 180.195 29.904 180.803 29.904C181.411 29.904 181.907 29.5947 182.291 28.976C182.685 28.3467 182.883 27.3173 182.883 25.888C182.883 24.4587 182.685 23.4293 182.291 22.8C181.907 22.1707 181.411 21.856 180.803 21.856ZM187.12 30.112C186.683 30.112 186.304 30.032 185.984 29.872C185.664 29.7013 185.419 29.4667 185.248 29.168C185.088 28.8693 185.008 28.5227 185.008 28.128C185.008 27.6587 185.115 27.2747 185.328 26.976C185.552 26.6773 185.835 26.4373 186.176 26.256C186.518 26.0747 186.875 25.9253 187.248 25.808C187.632 25.68 187.995 25.5627 188.336 25.456C188.678 25.3387 188.955 25.2053 189.168 25.056C189.392 24.9067 189.504 24.7093 189.504 24.464V23.472C189.504 23.024 189.435 22.6827 189.296 22.448C189.168 22.2133 188.992 22.0587 188.768 21.984C188.544 21.8987 188.294 21.856 188.016 21.856C187.75 21.856 187.462 21.8933 187.152 21.968C186.854 22.0427 186.614 22.1973 186.432 22.432C186.635 22.4747 186.811 22.5813 186.96 22.752C187.11 22.9227 187.184 23.1413 187.184 23.408C187.184 23.6747 187.099 23.888 186.928 24.048C186.758 24.1973 186.539 24.272 186.272 24.272C185.963 24.272 185.734 24.176 185.584 23.984C185.446 23.7813 185.376 23.5573 185.376 23.312C185.376 23.0347 185.446 22.8107 185.584 22.64C185.723 22.4693 185.899 22.3093 186.112 22.16C186.358 21.9893 186.672 21.8453 187.056 21.728C187.451 21.6 187.894 21.536 188.384 21.536C188.822 21.536 189.195 21.5893 189.504 21.696C189.814 21.792 190.07 21.936 190.272 22.128C190.55 22.384 190.731 22.6987 190.816 23.072C190.902 23.4347 190.944 23.872 190.944 24.384V28.832C190.944 29.0987 190.982 29.2907 191.056 29.408C191.142 29.5253 191.27 29.584 191.44 29.584C191.558 29.584 191.67 29.5573 191.776 29.504C191.883 29.4507 192.011 29.3653 192.16 29.248L192.336 29.52C192.112 29.6907 191.899 29.8347 191.696 29.952C191.494 30.0587 191.222 30.112 190.88 30.112C190.571 30.112 190.315 30.0587 190.112 29.952C189.91 29.8453 189.755 29.6907 189.648 29.488C189.552 29.2747 189.504 29.008 189.504 28.688C189.216 29.168 188.87 29.5253 188.464 29.76C188.07 29.9947 187.622 30.112 187.12 30.112ZM187.696 29.472C188.048 29.472 188.374 29.3707 188.672 29.168C188.982 28.9653 189.259 28.6613 189.504 28.256V25.12C189.376 25.3013 189.19 25.456 188.944 25.584C188.699 25.7013 188.432 25.824 188.144 25.952C187.856 26.0693 187.579 26.2133 187.312 26.384C187.056 26.544 186.843 26.7573 186.672 27.024C186.502 27.2907 186.416 27.6373 186.416 28.064C186.416 28.4907 186.528 28.832 186.752 29.088C186.987 29.344 187.302 29.472 187.696 29.472ZM196.017 21.536C196.358 21.536 196.689 21.5787 197.009 21.664C197.329 21.7493 197.617 21.8773 197.873 22.048C198.118 22.208 198.305 22.3947 198.433 22.608C198.561 22.8107 198.625 23.0347 198.625 23.28C198.625 23.568 198.545 23.792 198.385 23.952C198.225 24.1013 198.022 24.176 197.777 24.176C197.542 24.176 197.334 24.1067 197.153 23.968C196.982 23.8293 196.897 23.632 196.897 23.376C196.897 23.1307 196.961 22.9333 197.089 22.784C197.228 22.6347 197.388 22.5387 197.569 22.496C197.462 22.304 197.27 22.144 196.993 22.016C196.726 21.888 196.438 21.824 196.129 21.824C195.862 21.824 195.596 21.888 195.329 22.016C195.062 22.144 194.817 22.3573 194.593 22.656C194.369 22.944 194.188 23.344 194.049 23.856C193.91 24.3573 193.841 24.9867 193.841 25.744C193.841 26.6827 193.948 27.4293 194.161 27.984C194.374 28.5387 194.652 28.9387 194.993 29.184C195.345 29.4187 195.729 29.536 196.145 29.536C196.422 29.536 196.705 29.4827 196.993 29.376C197.281 29.2693 197.553 29.0987 197.809 28.864C198.065 28.6187 198.284 28.2933 198.465 27.888L198.769 28C198.662 28.3413 198.486 28.688 198.241 29.04C197.996 29.3813 197.676 29.664 197.281 29.888C196.886 30.112 196.401 30.224 195.825 30.224C195.164 30.224 194.566 30.0533 194.033 29.712C193.5 29.3707 193.073 28.8853 192.753 28.256C192.444 27.616 192.289 26.8587 192.289 25.984C192.289 25.1093 192.444 24.3413 192.753 23.68C193.073 23.008 193.516 22.4853 194.081 22.112C194.646 21.728 195.292 21.536 196.017 21.536ZM201.51 17.472V23.456C201.788 22.7307 202.172 22.2293 202.662 21.952C203.164 21.6747 203.686 21.536 204.23 21.536C204.636 21.536 204.972 21.5893 205.238 21.696C205.516 21.8027 205.745 21.952 205.926 22.144C206.129 22.3573 206.273 22.624 206.358 22.944C206.444 23.264 206.486 23.696 206.486 24.24V28.512C206.486 28.96 206.577 29.264 206.758 29.424C206.95 29.584 207.265 29.664 207.702 29.664V30C207.521 29.9893 207.244 29.9787 206.87 29.968C206.497 29.9467 206.134 29.936 205.782 29.936C205.43 29.936 205.084 29.9467 204.742 29.968C204.412 29.9787 204.161 29.9893 203.99 30V29.664C204.374 29.664 204.646 29.584 204.806 29.424C204.966 29.264 205.046 28.96 205.046 28.512V23.888C205.046 23.5573 205.02 23.2533 204.966 22.976C204.913 22.6987 204.79 22.4747 204.598 22.304C204.417 22.1333 204.134 22.048 203.75 22.048C203.313 22.048 202.924 22.1707 202.582 22.416C202.252 22.6613 201.99 23.0027 201.798 23.44C201.606 23.8773 201.51 24.3787 201.51 24.944V28.512C201.51 28.96 201.59 29.264 201.75 29.424C201.91 29.584 202.182 29.664 202.566 29.664V30C202.396 29.9893 202.14 29.9787 201.798 29.968C201.468 29.9467 201.126 29.936 200.774 29.936C200.422 29.936 200.06 29.9467 199.686 29.968C199.313 29.9787 199.036 29.9893 198.854 30V29.664C199.292 29.664 199.601 29.584 199.782 29.424C199.974 29.264 200.07 28.96 200.07 28.512V19.392C200.07 18.912 199.985 18.56 199.814 18.336C199.644 18.1013 199.324 17.984 198.854 17.984V17.648C199.196 17.68 199.526 17.696 199.846 17.696C200.156 17.696 200.449 17.68 200.726 17.648C201.014 17.6053 201.276 17.5467 201.51 17.472ZM209.429 17.76C209.706 17.76 209.946 17.8613 210.149 18.064C210.351 18.2667 210.453 18.5067 210.453 18.784C210.453 19.0613 210.351 19.3013 210.149 19.504C209.946 19.7067 209.706 19.808 209.429 19.808C209.151 19.808 208.911 19.7067 208.709 19.504C208.506 19.3013 208.405 19.0613 208.405 18.784C208.405 18.5067 208.506 18.2667 208.709 18.064C208.911 17.8613 209.151 17.76 209.429 17.76ZM210.261 21.584V28.512C210.261 28.96 210.351 29.264 210.533 29.424C210.725 29.584 211.039 29.664 211.477 29.664V30C211.295 29.9893 211.018 29.9787 210.645 29.968C210.282 29.9467 209.914 29.936 209.541 29.936C209.178 29.936 208.81 29.9467 208.437 29.968C208.063 29.9787 207.786 29.9893 207.605 30V29.664C208.042 29.664 208.351 29.584 208.533 29.424C208.725 29.264 208.821 28.96 208.821 28.512V23.504C208.821 23.024 208.735 22.672 208.565 22.448C208.394 22.2133 208.074 22.096 207.605 22.096V21.76C207.946 21.792 208.277 21.808 208.597 21.808C208.906 21.808 209.199 21.792 209.477 21.76C209.765 21.7173 210.026 21.6587 210.261 21.584ZM216.868 21.536C217.273 21.536 217.609 21.5893 217.876 21.696C218.153 21.8027 218.383 21.952 218.564 22.144C218.767 22.3573 218.911 22.624 218.996 22.944C219.081 23.264 219.124 23.696 219.124 24.24V28.512C219.124 28.96 219.215 29.264 219.396 29.424C219.588 29.584 219.903 29.664 220.34 29.664V30C220.159 29.9893 219.881 29.9787 219.508 29.968C219.135 29.9467 218.772 29.936 218.42 29.936C218.068 29.936 217.721 29.9467 217.38 29.968C217.049 29.9787 216.799 29.9893 216.628 30V29.664C217.012 29.664 217.284 29.584 217.444 29.424C217.604 29.264 217.684 28.96 217.684 28.512V23.888C217.684 23.5573 217.657 23.2533 217.604 22.976C217.551 22.6987 217.428 22.4747 217.236 22.304C217.055 22.1333 216.772 22.048 216.388 22.048C215.94 22.048 215.545 22.176 215.204 22.432C214.873 22.688 214.612 23.04 214.42 23.488C214.239 23.9253 214.148 24.416 214.148 24.96V28.512C214.148 28.96 214.228 29.264 214.388 29.424C214.548 29.584 214.82 29.664 215.204 29.664V30C215.033 29.9893 214.777 29.9787 214.436 29.968C214.105 29.9467 213.764 29.936 213.412 29.936C213.06 29.936 212.697 29.9467 212.324 29.968C211.951 29.9787 211.673 29.9893 211.492 30V29.664C211.929 29.664 212.239 29.584 212.42 29.424C212.612 29.264 212.708 28.96 212.708 28.512V23.504C212.708 23.024 212.623 22.672 212.452 22.448C212.281 22.2133 211.961 22.096 211.492 22.096V21.76C211.833 21.792 212.164 21.808 212.484 21.808C212.793 21.808 213.087 21.792 213.364 21.76C213.652 21.7173 213.913 21.6587 214.148 21.584V23.472C214.425 22.7467 214.809 22.2453 215.3 21.968C215.801 21.68 216.324 21.536 216.868 21.536ZM223.027 33.008C222.461 33.008 221.928 32.9493 221.427 32.832C220.925 32.7147 220.52 32.528 220.211 32.272C219.912 32.0267 219.763 31.712 219.763 31.328C219.763 30.9547 219.912 30.6347 220.211 30.368C220.509 30.1013 220.915 29.8987 221.427 29.76L221.523 30.016C221.288 30.0907 221.101 30.24 220.963 30.464C220.824 30.688 220.755 30.9387 220.755 31.216C220.755 31.7067 220.979 32.08 221.427 32.336C221.885 32.6027 222.477 32.736 223.203 32.736C223.683 32.736 224.152 32.672 224.611 32.544C225.069 32.4267 225.448 32.224 225.747 31.936C226.045 31.648 226.195 31.2693 226.195 30.8C226.195 30.448 226.067 30.16 225.811 29.936C225.565 29.7013 225.075 29.584 224.339 29.584H223.155C222.813 29.584 222.483 29.5573 222.163 29.504C221.843 29.4507 221.581 29.3387 221.379 29.168C221.176 28.9973 221.075 28.736 221.075 28.384C221.075 28.0213 221.224 27.6747 221.523 27.344C221.821 27.0027 222.371 26.656 223.171 26.304L223.363 26.448C223 26.64 222.685 26.8373 222.419 27.04C222.152 27.232 222.019 27.4613 222.019 27.728C222.019 28.0693 222.275 28.24 222.787 28.24H224.787C225.235 28.24 225.645 28.304 226.019 28.432C226.403 28.56 226.712 28.7627 226.947 29.04C227.181 29.3173 227.299 29.68 227.299 30.128C227.299 30.6293 227.139 31.0987 226.819 31.536C226.499 31.9733 226.019 32.3253 225.379 32.592C224.749 32.8693 223.965 33.008 223.027 33.008ZM223.107 26.592C222.584 26.592 222.109 26.5067 221.683 26.336C221.256 26.1547 220.92 25.8773 220.675 25.504C220.429 25.1307 220.307 24.6507 220.307 24.064C220.307 23.4773 220.429 22.9973 220.675 22.624C220.92 22.2507 221.256 21.9787 221.683 21.808C222.109 21.6267 222.584 21.536 223.107 21.536C223.64 21.536 224.115 21.6267 224.531 21.808C224.957 21.9787 225.293 22.2507 225.539 22.624C225.784 22.9973 225.907 23.4773 225.907 24.064C225.907 24.6507 225.784 25.1307 225.539 25.504C225.293 25.8773 224.957 26.1547 224.531 26.336C224.115 26.5067 223.64 26.592 223.107 26.592ZM223.107 26.304C223.512 26.304 223.827 26.144 224.051 25.824C224.285 25.504 224.403 24.9173 224.403 24.064C224.403 23.2107 224.285 22.624 224.051 22.304C223.827 21.984 223.512 21.824 223.107 21.824C222.712 21.824 222.397 21.984 222.163 22.304C221.928 22.624 221.811 23.2107 221.811 24.064C221.811 24.9173 221.928 25.504 222.163 25.824C222.397 26.144 222.712 26.304 223.107 26.304ZM225.411 22.864L225.123 22.752C225.272 22.3893 225.528 22.0693 225.891 21.792C226.253 21.5147 226.632 21.376 227.027 21.376C227.304 21.376 227.528 21.456 227.699 21.616C227.869 21.7653 227.955 21.9947 227.955 22.304C227.955 22.6347 227.864 22.8693 227.683 23.008C227.512 23.136 227.336 23.2 227.155 23.2C226.995 23.2 226.845 23.1467 226.707 23.04C226.568 22.9227 226.488 22.7413 226.467 22.496C226.445 22.2507 226.52 21.936 226.691 21.552L226.899 21.6C226.451 21.7707 226.131 21.952 225.939 22.144C225.747 22.3253 225.571 22.5653 225.411 22.864ZM231.128 18.672C231.352 18.6827 231.646 18.6933 232.008 18.704C232.371 18.7147 232.728 18.72 233.08 18.72C233.582 18.72 234.062 18.7147 234.52 18.704C234.979 18.6933 235.304 18.688 235.496 18.688C236.787 18.688 237.752 18.9813 238.392 19.568C239.032 20.1547 239.352 20.912 239.352 21.84C239.352 22.224 239.288 22.6293 239.16 23.056C239.032 23.472 238.808 23.8613 238.488 24.224C238.179 24.576 237.752 24.864 237.208 25.088C236.664 25.312 235.976 25.424 235.144 25.424H233.608V25.104H234.984C235.742 25.104 236.318 24.96 236.712 24.672C237.118 24.384 237.39 24.0053 237.528 23.536C237.678 23.0667 237.752 22.56 237.752 22.016C237.752 21.0027 237.55 20.2453 237.144 19.744C236.75 19.2427 236.067 18.992 235.096 18.992C234.606 18.992 234.286 19.0827 234.136 19.264C233.987 19.4453 233.912 19.8133 233.912 20.368V28.304C233.912 28.688 233.95 28.976 234.024 29.168C234.11 29.36 234.27 29.488 234.504 29.552C234.739 29.616 235.08 29.6587 235.528 29.68V30C235.251 29.9787 234.899 29.968 234.472 29.968C234.046 29.9573 233.614 29.952 233.176 29.952C232.76 29.952 232.371 29.9573 232.008 29.968C231.646 29.968 231.352 29.9787 231.128 30V29.68C231.491 29.6587 231.763 29.616 231.944 29.552C232.136 29.488 232.264 29.36 232.328 29.168C232.392 28.976 232.424 28.688 232.424 28.304V20.368C232.424 19.9733 232.392 19.6853 232.328 19.504C232.264 19.312 232.136 19.184 231.944 19.12C231.763 19.0453 231.491 19.0027 231.128 18.992V18.672ZM244.456 21.536C244.744 21.536 244.994 21.5947 245.208 21.712C245.432 21.8293 245.602 21.984 245.72 22.176C245.848 22.3573 245.912 22.5653 245.912 22.8C245.912 23.0667 245.826 23.3013 245.656 23.504C245.496 23.7067 245.277 23.808 245 23.808C244.776 23.808 244.578 23.7387 244.408 23.6C244.237 23.4507 244.152 23.2427 244.152 22.976C244.152 22.7733 244.205 22.6027 244.312 22.464C244.429 22.3147 244.557 22.1973 244.696 22.112C244.621 22.0053 244.509 21.952 244.36 21.952C244.029 21.952 243.725 22.0533 243.448 22.256C243.17 22.448 242.936 22.6987 242.744 23.008C242.552 23.3173 242.402 23.648 242.296 24C242.189 24.3413 242.136 24.6613 242.136 24.96V28.352C242.136 28.8747 242.285 29.2267 242.584 29.408C242.893 29.5787 243.309 29.664 243.832 29.664V30C243.586 29.9893 243.24 29.9787 242.792 29.968C242.344 29.9467 241.869 29.936 241.368 29.936C241.005 29.936 240.642 29.9467 240.28 29.968C239.928 29.9787 239.661 29.9893 239.48 30V29.664C239.917 29.664 240.226 29.584 240.408 29.424C240.6 29.264 240.696 28.96 240.696 28.512V23.504C240.696 23.024 240.61 22.672 240.44 22.448C240.269 22.2133 239.949 22.096 239.48 22.096V21.76C239.821 21.792 240.152 21.808 240.472 21.808C240.781 21.808 241.074 21.792 241.352 21.76C241.64 21.7173 241.901 21.6587 242.136 21.584V23.584C242.253 23.2747 242.418 22.9653 242.632 22.656C242.856 22.336 243.122 22.0693 243.432 21.856C243.741 21.6427 244.082 21.536 244.456 21.536ZM248.077 30.112C247.639 30.112 247.261 30.032 246.941 29.872C246.621 29.7013 246.375 29.4667 246.205 29.168C246.045 28.8693 245.965 28.5227 245.965 28.128C245.965 27.6587 246.071 27.2747 246.285 26.976C246.509 26.6773 246.791 26.4373 247.133 26.256C247.474 26.0747 247.831 25.9253 248.205 25.808C248.589 25.68 248.951 25.5627 249.293 25.456C249.634 25.3387 249.911 25.2053 250.125 25.056C250.349 24.9067 250.461 24.7093 250.461 24.464V23.472C250.461 23.024 250.391 22.6827 250.253 22.448C250.125 22.2133 249.949 22.0587 249.725 21.984C249.501 21.8987 249.25 21.856 248.973 21.856C248.706 21.856 248.418 21.8933 248.109 21.968C247.81 22.0427 247.57 22.1973 247.389 22.432C247.591 22.4747 247.767 22.5813 247.917 22.752C248.066 22.9227 248.141 23.1413 248.141 23.408C248.141 23.6747 248.055 23.888 247.885 24.048C247.714 24.1973 247.495 24.272 247.229 24.272C246.919 24.272 246.69 24.176 246.541 23.984C246.402 23.7813 246.333 23.5573 246.333 23.312C246.333 23.0347 246.402 22.8107 246.541 22.64C246.679 22.4693 246.855 22.3093 247.069 22.16C247.314 21.9893 247.629 21.8453 248.013 21.728C248.407 21.6 248.85 21.536 249.341 21.536C249.778 21.536 250.151 21.5893 250.461 21.696C250.77 21.792 251.026 21.936 251.229 22.128C251.506 22.384 251.687 22.6987 251.773 23.072C251.858 23.4347 251.901 23.872 251.901 24.384V28.832C251.901 29.0987 251.938 29.2907 252.013 29.408C252.098 29.5253 252.226 29.584 252.397 29.584C252.514 29.584 252.626 29.5573 252.733 29.504C252.839 29.4507 252.967 29.3653 253.117 29.248L253.293 29.52C253.069 29.6907 252.855 29.8347 252.653 29.952C252.45 30.0587 252.178 30.112 251.837 30.112C251.527 30.112 251.271 30.0587 251.069 29.952C250.866 29.8453 250.711 29.6907 250.605 29.488C250.509 29.2747 250.461 29.008 250.461 28.688C250.173 29.168 249.826 29.5253 249.421 29.76C249.026 29.9947 248.578 30.112 248.077 30.112ZM248.653 29.472C249.005 29.472 249.33 29.3707 249.629 29.168C249.938 28.9653 250.215 28.6613 250.461 28.256V25.12C250.333 25.3013 250.146 25.456 249.901 25.584C249.655 25.7013 249.389 25.824 249.101 25.952C248.813 26.0693 248.535 26.2133 248.269 26.384C248.013 26.544 247.799 26.7573 247.629 27.024C247.458 27.2907 247.373 27.6373 247.373 28.064C247.373 28.4907 247.485 28.832 247.709 29.088C247.943 29.344 248.258 29.472 248.653 29.472ZM256.973 21.536C257.315 21.536 257.645 21.5787 257.965 21.664C258.285 21.7493 258.573 21.8773 258.829 22.048C259.075 22.208 259.261 22.3947 259.389 22.608C259.517 22.8107 259.581 23.0347 259.581 23.28C259.581 23.568 259.501 23.792 259.341 23.952C259.181 24.1013 258.979 24.176 258.733 24.176C258.499 24.176 258.291 24.1067 258.109 23.968C257.939 23.8293 257.853 23.632 257.853 23.376C257.853 23.1307 257.917 22.9333 258.045 22.784C258.184 22.6347 258.344 22.5387 258.525 22.496C258.419 22.304 258.227 22.144 257.949 22.016C257.683 21.888 257.395 21.824 257.085 21.824C256.819 21.824 256.552 21.888 256.285 22.016C256.019 22.144 255.773 22.3573 255.549 22.656C255.325 22.944 255.144 23.344 255.005 23.856C254.867 24.3573 254.797 24.9867 254.797 25.744C254.797 26.6827 254.904 27.4293 255.117 27.984C255.331 28.5387 255.608 28.9387 255.949 29.184C256.301 29.4187 256.685 29.536 257.101 29.536C257.379 29.536 257.661 29.4827 257.949 29.376C258.237 29.2693 258.509 29.0987 258.765 28.864C259.021 28.6187 259.24 28.2933 259.421 27.888L259.725 28C259.619 28.3413 259.443 28.688 259.197 29.04C258.952 29.3813 258.632 29.664 258.237 29.888C257.843 30.112 257.357 30.224 256.781 30.224C256.12 30.224 255.523 30.0533 254.989 29.712C254.456 29.3707 254.029 28.8853 253.709 28.256C253.4 27.616 253.245 26.8587 253.245 25.984C253.245 25.1093 253.4 24.3413 253.709 23.68C254.029 23.008 254.472 22.4853 255.037 22.112C255.603 21.728 256.248 21.536 256.973 21.536ZM262.531 19.104V21.776H264.899V22.096H262.531V28.288C262.531 28.7893 262.621 29.1413 262.803 29.344C262.984 29.5467 263.235 29.648 263.555 29.648C263.875 29.648 264.152 29.52 264.387 29.264C264.621 28.9973 264.824 28.5547 264.995 27.936L265.315 28.016C265.208 28.6347 264.995 29.1573 264.675 29.584C264.365 30.0107 263.885 30.224 263.235 30.224C262.872 30.224 262.573 30.176 262.339 30.08C262.104 29.9947 261.896 29.8667 261.715 29.696C261.48 29.4507 261.315 29.1573 261.219 28.816C261.133 28.4747 261.091 28.0213 261.091 27.456V22.096H259.555V21.776H261.091V19.328C261.357 19.3173 261.613 19.296 261.859 19.264C262.104 19.232 262.328 19.1787 262.531 19.104ZM266.635 17.76C266.912 17.76 267.152 17.8613 267.355 18.064C267.558 18.2667 267.659 18.5067 267.659 18.784C267.659 19.0613 267.558 19.3013 267.355 19.504C267.152 19.7067 266.912 19.808 266.635 19.808C266.358 19.808 266.118 19.7067 265.915 19.504C265.712 19.3013 265.611 19.0613 265.611 18.784C265.611 18.5067 265.712 18.2667 265.915 18.064C266.118 17.8613 266.358 17.76 266.635 17.76ZM267.467 21.584V28.512C267.467 28.96 267.558 29.264 267.739 29.424C267.931 29.584 268.246 29.664 268.683 29.664V30C268.502 29.9893 268.224 29.9787 267.851 29.968C267.488 29.9467 267.12 29.936 266.747 29.936C266.384 29.936 266.016 29.9467 265.643 29.968C265.27 29.9787 264.992 29.9893 264.811 30V29.664C265.248 29.664 265.558 29.584 265.739 29.424C265.931 29.264 266.027 28.96 266.027 28.512V23.504C266.027 23.024 265.942 22.672 265.771 22.448C265.6 22.2133 265.28 22.096 264.811 22.096V21.76C265.152 21.792 265.483 21.808 265.803 21.808C266.112 21.808 266.406 21.792 266.683 21.76C266.971 21.7173 267.232 21.6587 267.467 21.584ZM272.698 21.536C273.04 21.536 273.37 21.5787 273.69 21.664C274.01 21.7493 274.298 21.8773 274.554 22.048C274.8 22.208 274.986 22.3947 275.114 22.608C275.242 22.8107 275.306 23.0347 275.306 23.28C275.306 23.568 275.226 23.792 275.066 23.952C274.906 24.1013 274.704 24.176 274.458 24.176C274.224 24.176 274.016 24.1067 273.834 23.968C273.664 23.8293 273.578 23.632 273.578 23.376C273.578 23.1307 273.642 22.9333 273.77 22.784C273.909 22.6347 274.069 22.5387 274.25 22.496C274.144 22.304 273.952 22.144 273.674 22.016C273.408 21.888 273.12 21.824 272.81 21.824C272.544 21.824 272.277 21.888 272.01 22.016C271.744 22.144 271.498 22.3573 271.274 22.656C271.05 22.944 270.869 23.344 270.73 23.856C270.592 24.3573 270.522 24.9867 270.522 25.744C270.522 26.6827 270.629 27.4293 270.842 27.984C271.056 28.5387 271.333 28.9387 271.674 29.184C272.026 29.4187 272.41 29.536 272.826 29.536C273.104 29.536 273.386 29.4827 273.674 29.376C273.962 29.2693 274.234 29.0987 274.49 28.864C274.746 28.6187 274.965 28.2933 275.146 27.888L275.45 28C275.344 28.3413 275.168 28.688 274.922 29.04C274.677 29.3813 274.357 29.664 273.962 29.888C273.568 30.112 273.082 30.224 272.506 30.224C271.845 30.224 271.248 30.0533 270.714 29.712C270.181 29.3707 269.754 28.8853 269.434 28.256C269.125 27.616 268.97 26.8587 268.97 25.984C268.97 25.1093 269.125 24.3413 269.434 23.68C269.754 23.008 270.197 22.4853 270.762 22.112C271.328 21.728 271.973 21.536 272.698 21.536ZM279.568 21.536C280.506 21.536 281.237 21.824 281.76 22.4C282.293 22.9653 282.56 23.8507 282.56 25.056H276.912L276.896 24.752H281.024C281.045 24.2293 281.002 23.7493 280.896 23.312C280.789 22.864 280.618 22.5067 280.384 22.24C280.16 21.9733 279.866 21.84 279.504 21.84C279.013 21.84 278.576 22.0853 278.192 22.576C277.818 23.0667 277.594 23.8453 277.52 24.912L277.568 24.976C277.546 25.136 277.53 25.312 277.52 25.504C277.509 25.696 277.504 25.888 277.504 26.08C277.504 26.8053 277.621 27.4293 277.856 27.952C278.09 28.4747 278.394 28.8747 278.768 29.152C279.152 29.4187 279.546 29.552 279.952 29.552C280.272 29.552 280.576 29.504 280.864 29.408C281.152 29.3013 281.418 29.1307 281.664 28.896C281.909 28.6613 282.122 28.3467 282.304 27.952L282.624 28.08C282.506 28.432 282.314 28.7733 282.048 29.104C281.781 29.4347 281.445 29.7067 281.04 29.92C280.634 30.1227 280.165 30.224 279.632 30.224C278.864 30.224 278.202 30.048 277.648 29.696C277.104 29.344 276.682 28.8587 276.384 28.24C276.096 27.6107 275.952 26.8907 275.952 26.08C275.952 25.1413 276.101 24.336 276.4 23.664C276.698 22.9813 277.12 22.4587 277.664 22.096C278.208 21.7227 278.842 21.536 279.568 21.536Z" fill="black"/>
</svg>
