<svg width="96" height="96" viewBox="0 0 96 96" fill="none" xmlns="http://www.w3.org/2000/svg">
<path d="M0 13.7143C0 6.14009 6.1401 0 13.7143 0H82.2857C89.8599 0 96 6.1401 96 13.7143V82.2857C96 89.8599 89.8599 96 82.2857 96H13.7143C6.14009 96 0 89.8599 0 82.2857V13.7143Z" fill="white"/>
<path d="M35.6846 40.0091C35.6114 41.088 35.5566 42.1303 35.52 43.136C35.5017 44.1417 35.4926 44.9097 35.4926 45.44C35.4926 45.824 35.5017 46.1897 35.52 46.5371C35.5383 46.8846 35.5566 47.1771 35.5749 47.4149H34.944C34.5234 45.696 34.0114 44.3429 33.408 43.3554C32.8229 42.368 32.192 41.6731 31.5154 41.2709C30.8571 40.8503 30.1989 40.64 29.5406 40.64H29.5131V56.3291C29.5131 57.0789 29.5863 57.6366 29.7326 58.0023C29.8971 58.368 30.1989 58.6057 30.6377 58.7154C31.0766 58.8251 31.7166 58.88 32.5577 58.88V59.4286C31.9177 59.4103 31.0491 59.392 29.952 59.3737C28.8731 59.3554 27.7394 59.3463 26.5509 59.3463C25.4171 59.3463 24.3474 59.3554 23.3417 59.3737C22.336 59.392 21.5223 59.4103 20.9006 59.4286V58.88C21.7417 58.88 22.3817 58.8251 22.8206 58.7154C23.2594 58.6057 23.552 58.368 23.6983 58.0023C23.8629 57.6366 23.9451 57.0789 23.9451 56.3291V40.64H23.9177C23.2594 40.64 22.592 40.8503 21.9154 41.2709C21.2571 41.6731 20.6354 42.368 20.0503 43.3554C19.4651 44.3246 18.9531 45.6777 18.5143 47.4149H17.8834C17.92 47.1771 17.9383 46.8846 17.9383 46.5371C17.9566 46.1897 17.9657 45.824 17.9657 45.44C17.9657 44.9097 17.9474 44.1417 17.9109 43.136C17.8926 42.1303 17.8469 41.088 17.7737 40.0091C18.6514 40.0274 19.6206 40.0457 20.6811 40.064C21.7417 40.0823 22.8023 40.0914 23.8629 40.0914C24.9234 40.0914 25.8834 40.0914 26.7429 40.0914C27.6023 40.0914 28.5623 40.0914 29.6229 40.0914C30.6834 40.0914 31.744 40.0823 32.8046 40.064C33.8651 40.0457 34.8251 40.0274 35.6846 40.0091Z" fill="black"/>
<path d="M47.9511 39.6251C49.2311 39.6251 50.2826 39.7989 51.1054 40.1463C51.9283 40.4937 52.6506 40.9143 53.2723 41.408C53.4734 41.5726 53.6563 41.6549 53.8209 41.6549C54.1683 41.6549 54.3969 41.1063 54.5066 40.0091H55.1374C55.1009 40.7406 55.0734 41.6366 55.0551 42.6971C55.0369 43.7394 55.0277 45.1291 55.0277 46.8663H54.3969C54.2689 45.5497 54.0403 44.4526 53.7111 43.5749C53.4003 42.6789 52.7877 41.92 51.8734 41.2983C51.4894 41.0423 51.0414 40.8411 50.5294 40.6949C50.0174 40.5486 49.5237 40.4754 49.0483 40.4754C47.9877 40.4754 47.11 40.768 46.4151 41.3531C45.7203 41.92 45.1626 42.6697 44.742 43.6023C44.3397 44.5166 44.0471 45.5223 43.8643 46.6194C43.6997 47.6983 43.6174 48.7497 43.6174 49.7737C43.6174 53.0651 44.0197 55.4697 44.8243 56.9874C45.6289 58.5051 46.6986 59.264 48.0334 59.264C48.326 59.264 48.582 59.2366 48.8014 59.1817C49.0209 59.1269 49.2129 59.0446 49.3774 58.9349C49.5786 58.7886 49.7249 58.6057 49.8163 58.3863C49.9077 58.1669 49.9534 57.8926 49.9534 57.5634V54.8206C49.9534 53.9246 49.8803 53.2571 49.734 52.8183C49.606 52.3794 49.3409 52.0777 48.9386 51.9131C48.5363 51.7486 47.9511 51.6571 47.1831 51.6389V51.0903C47.6037 51.1086 48.1157 51.1269 48.7191 51.1451C49.3226 51.1451 49.9534 51.1543 50.6117 51.1726C51.27 51.1726 51.8734 51.1726 52.422 51.1726C53.2997 51.1726 54.1043 51.1634 54.8357 51.1451C55.5854 51.1269 56.1889 51.1086 56.646 51.0903V51.6389C56.3351 51.6571 56.0974 51.7211 55.9329 51.8309C55.7683 51.9406 55.6586 52.16 55.6037 52.4891C55.5489 52.8183 55.5214 53.3211 55.5214 53.9977V59.4286H54.9729C54.9546 59.1177 54.8814 58.7794 54.7534 58.4137C54.6254 58.048 54.4151 57.8651 54.1226 57.8651C53.9763 57.8651 53.766 57.9017 53.4917 57.9749C53.2357 58.048 52.8243 58.2217 52.2574 58.496C51.5443 58.8434 50.7854 59.1543 49.9809 59.4286C49.1946 59.6846 48.4083 59.8126 47.622 59.8126C45.3363 59.8126 43.4254 59.4194 41.8894 58.6331C40.3534 57.8469 39.2014 56.7131 38.4334 55.232C37.6837 53.7509 37.3089 51.968 37.3089 49.8834C37.3089 47.8354 37.7569 46.0434 38.6529 44.5074C39.5671 42.9714 40.8197 41.7737 42.4106 40.9143C44.0197 40.0549 45.8666 39.6251 47.9511 39.6251Z" fill="black"/>
<path d="M57.8216 40.0091C58.3519 40.0274 59.0467 40.0457 59.9061 40.064C60.7839 40.0823 61.6616 40.0914 62.5393 40.0914C63.4536 40.0914 64.3313 40.0823 65.1724 40.064C66.0136 40.0457 66.6079 40.0366 66.9553 40.0366C68.8204 40.0366 70.3564 40.2103 71.5633 40.5577C72.7884 40.9051 73.7027 41.4354 74.3061 42.1486C74.9096 42.8434 75.2113 43.7303 75.2113 44.8091C75.2113 45.4857 75.0741 46.144 74.7999 46.784C74.5256 47.424 74.0593 48.0091 73.401 48.5394C72.7427 49.0514 71.8376 49.4629 70.6856 49.7737C69.5519 50.0663 68.1073 50.2126 66.3519 50.2126H63.7187V49.664H66.0776C67.0101 49.664 67.7141 49.4629 68.1896 49.0606C68.6833 48.64 69.0124 48.0914 69.177 47.4149C69.3599 46.72 69.4513 45.952 69.4513 45.1109C69.4513 43.6663 69.2501 42.5509 68.8479 41.7646C68.4639 40.96 67.7873 40.5577 66.8181 40.5577C66.1964 40.5577 65.7941 40.7131 65.6113 41.024C65.4284 41.3349 65.337 41.9657 65.337 42.9166V56.5211C65.337 57.1794 65.3827 57.6731 65.4741 58.0023C65.5839 58.3314 65.7759 58.5509 66.0501 58.6606C66.3244 58.7703 66.7359 58.8434 67.2844 58.88V59.4286C66.7541 59.392 66.0684 59.3737 65.2273 59.3737C64.4044 59.3554 63.5633 59.3463 62.7039 59.3463C61.7164 59.3463 60.7839 59.3554 59.9061 59.3737C59.0467 59.3737 58.3519 59.392 57.8216 59.4286V58.88C58.3884 58.8434 58.809 58.7703 59.0833 58.6606C59.3576 58.5509 59.5404 58.3314 59.6319 58.0023C59.7233 57.6731 59.769 57.1794 59.769 56.5211V42.9166C59.769 42.24 59.7233 41.7463 59.6319 41.4354C59.5404 41.1063 59.3484 40.8869 59.0559 40.7771C58.7816 40.6491 58.3701 40.576 57.8216 40.5577V40.0091ZM63.5541 49.7463C64.2124 49.7646 64.8341 49.8011 65.4193 49.856C66.0044 49.9109 66.5439 49.9657 67.0376 50.0206C67.5313 50.0571 67.9519 50.0846 68.2993 50.1029C70.2559 50.1943 71.7187 50.5326 72.6879 51.1177C73.6753 51.7029 74.2787 52.5623 74.4981 53.696L75.0741 56.5486C75.2204 57.2251 75.385 57.6914 75.5679 57.9474C75.7507 58.2034 75.9976 58.3314 76.3084 58.3314C76.4913 58.3314 76.6467 58.304 76.7747 58.2491C76.9027 58.1943 77.0307 58.1029 77.1587 57.9749L77.5153 58.3314C76.9484 58.8983 76.3267 59.2823 75.6501 59.4834C74.9919 59.7029 74.2421 59.8126 73.401 59.8126C72.2124 59.8126 71.2524 59.6023 70.521 59.1817C69.7896 58.7429 69.3416 57.9657 69.177 56.8503L68.7656 54.1074C68.6559 53.3577 68.5187 52.6903 68.3541 52.1051C68.1896 51.52 67.9701 51.0629 67.6959 50.7337C67.4216 50.3863 67.0467 50.2126 66.5713 50.2126H63.609L63.5541 49.7463Z" fill="black"/>
</svg>
