<svg width="36" height="41" viewBox="0 0 36 41" fill="none" xmlns="http://www.w3.org/2000/svg">
<path fill-rule="evenodd" clip-rule="evenodd" d="M17.9378 0.536438C24.6503 4.7913 30.7143 6.80427 35.9186 6.32839C36.8276 24.7123 30.0385 35.5692 18.0073 40.1003C6.38899 35.8593 -0.483179 25.4696 0.0265028 6.04956C6.13592 6.36928 12.1297 5.04855 17.9378 0.536438ZM10.8773 22.0361C10.4974 21.7109 10.4529 21.1391 10.7778 20.7589C11.1033 20.3786 11.6751 20.3345 12.0551 20.6594L15.7558 23.8388L23.863 14.9254C24.2002 14.5551 24.7736 14.528 25.1442 14.8648C25.5141 15.2016 25.5412 15.775 25.2044 16.1456L16.5047 25.7108L16.5041 25.7101C16.1756 26.0711 15.6183 26.1081 15.2451 25.7887L10.8773 22.0361Z" fill="black"/>
</svg>
