<svg width="36" height="45" viewBox="0 0 36 45" fill="none" xmlns="http://www.w3.org/2000/svg">
<path d="M29.3652 40.5721C29.4316 33.4209 27.0005 28.6407 23.6868 26.1983C22.4026 25.2516 20.993 24.6556 19.5569 24.4085C18.1151 24.1619 16.6354 24.2616 15.218 24.7067C10.5421 26.1767 6.55245 31.4536 6.63516 40.5718L29.3652 40.5721ZM6.79991 7.03025H29.2021C29.3199 5.97798 29.3771 4.86053 29.3652 3.67862H6.63618C6.62461 4.86089 6.68145 5.97798 6.79991 7.03025ZM0.309752 40.5721H3.56623C3.47909 30.653 7.70908 24.4986 12.9436 22.1347C7.70534 19.7702 3.47365 13.6086 3.56623 3.6779L0.309752 3.67826C0.139218 3.67826 0.000340387 3.51261 0.000340387 3.30914L0 0.368762C0 0.165655 0.139218 0 0.309752 0H35.6902C35.8604 0 36 0.165655 36 0.368762V3.30878C36 3.51189 35.8604 3.6779 35.6902 3.6779H32.4327C32.5093 12.0374 29.5122 17.7359 25.4395 20.7386C24.6947 21.2867 23.8931 21.7584 23.0588 22.1333C23.8918 22.5111 24.6958 22.9814 25.4388 23.5306C29.5081 26.5311 32.5039 32.2231 32.4321 40.5714L35.6902 40.5718C35.8604 40.5718 36 40.7385 36 40.9416V43.8809C36 44.084 35.8604 44.2508 35.6902 44.2508H0.309752C0.139218 44.2508 0.000340387 44.084 0.000340387 43.8809V40.9416C0.000340387 40.7389 0.139559 40.5721 0.309752 40.5721Z" fill="black"/>
</svg>
